<svg xmlns="http://www.w3.org/2000/svg" width="199.966" height="59.782" viewBox="0 0 199.966 59.782">
  <g id="Logo" transform="translate(-517 -1063)">
    <g id="Сгруппировать_189" data-name="Сгруппировать 189" transform="translate(472.983 948.891)">
      <path id="Контур_34" data-name="Контур 34" d="M77.549,152.9a13.187,13.187,0,0,1-4.48-2.177,5.567,5.567,0,0,1-1.674-4.006v-2.436h1.477v2.436a4.172,4.172,0,0,0,1.082,2.823,11.734,11.734,0,0,0,3.98,1.934Z" fill="#6ba539"/>
      <path id="Контур_35" data-name="Контур 35" d="M83.931,153.045l-.32-1.441a11.731,11.731,0,0,0,4.491-2.06,4.176,4.176,0,0,0,1.081-2.823v-2.436H90.66v2.436a5.567,5.567,0,0,1-1.674,4.006A13.174,13.174,0,0,1,83.931,153.045Z" fill="#6ba539"/>
      <path id="Контур_36" data-name="Контур 36" d="M67.136,153.937H65.659c0-.327-.166-3.242-4.37-3.242-3.646,0-5.823-2.452-5.823-6.561h1.477c0,2.319.754,5.084,4.346,5.084C67.07,149.218,67.136,153.89,67.136,153.937Z" fill="#007d70"/>
      <path id="Контур_37" data-name="Контур 37" d="M67.712,149.866c-3.072,0-5.212-3.021-5.212-5.732h1.477c0,1.968,1.631,4.255,3.735,4.255Z" fill="#007d70"/>
      <path id="Контур_38" data-name="Контур 38" d="M96.4,153.943l-1.477-.006c0-.047.066-4.719,5.847-4.719,3.591,0,4.346-2.765,4.346-5.084h1.477c0,4.109-2.177,6.561-5.823,6.561C96.562,150.7,96.4,153.61,96.4,153.943Z" fill="#007d70"/>
      <path id="Контур_39" data-name="Контур 39" d="M94.343,149.866v-1.477c2.1,0,3.735-2.287,3.735-4.255h1.477C99.555,146.845,97.415,149.866,94.343,149.866Z" fill="#007d70"/>
      <rect id="Прямоугольник_13" data-name="Прямоугольник 13" width="1.477" height="18.595" transform="translate(80.289 154.708)" fill="#6ba539"/>
      <g id="Сгруппировать_186" data-name="Сгруппировать 186">
        <g id="Сгруппировать_184" data-name="Сгруппировать 184">
          <path id="Контур_40" data-name="Контур 40" d="M61.007,136.384H59.53c0-2.834,5.743-5.134,9.491-5.134h1.06v1.477h-1.06C64.244,132.727,61.007,135.473,61.007,136.384Z" fill="#6ba539"/>
          <path id="Контур_41" data-name="Контур 41" d="M45.495,144.285H44.017a4.048,4.048,0,0,1,1.424-3.186,7.636,7.636,0,0,1,5.8-1.283c1.462.24,1.871-.349,2.551-1.322a7.85,7.85,0,0,1,1.063-1.3,6.657,6.657,0,0,1,6.912-1.162,3.293,3.293,0,0,1,2.222,2.985H62.515a1.938,1.938,0,0,0-1.335-1.631,5.193,5.193,0,0,0-5.315.889,6.519,6.519,0,0,0-.859,1.064c-.724,1.034-1.624,2.318-4,1.933a6.194,6.194,0,0,0-4.609.951A2.545,2.545,0,0,0,45.495,144.285Z" fill="#6ba539"/>
        </g>
        <g id="Сгруппировать_185" data-name="Сгруппировать 185">
          <path id="Контур_42" data-name="Контур 42" d="M102.525,136.384h-1.478c0-.911-3.236-3.657-8.013-3.657H89.895V131.25h3.139C96.782,131.25,102.525,133.55,102.525,136.384Z" fill="#6ba539"/>
          <path id="Контур_43" data-name="Контур 43" d="M118.038,144.285h-1.477a2.543,2.543,0,0,0-.9-2.06,6.191,6.191,0,0,0-4.608-.951c-2.373.386-3.275-.9-4-1.932a6.44,6.44,0,0,0-.86-1.064,5.2,5.2,0,0,0-5.315-.89,1.938,1.938,0,0,0-1.335,1.631H98.063a3.291,3.291,0,0,1,2.222-2.985A6.659,6.659,0,0,1,107.2,137.2a7.85,7.85,0,0,1,1.063,1.3c.681.973,1.091,1.562,2.551,1.322a7.639,7.639,0,0,1,5.8,1.283A4.045,4.045,0,0,1,118.038,144.285Z" fill="#6ba539"/>
        </g>
      </g>
      <path id="Контур_44" data-name="Контур 44" d="M84.047,173.891h-.776l-.006-.739V160.835c.094-2.4.249-6.354,5.4-6.354,3.63,0,5.471-3.482,5.471-10.347H95.61c0,9.773-3.778,11.824-6.948,11.824-3.461,0-3.807,2.033-3.92,4.906v11.46a28.329,28.329,0,0,0,24.716-28.19h1.477a29.8,29.8,0,0,1-26.851,29.753Z" fill="#007d70"/>
      <path id="Контур_45" data-name="Контур 45" d="M78.79,173.891l-.82,0a29.8,29.8,0,0,1-26.85-29.753H52.6a28.329,28.329,0,0,0,24.715,28.19V160.835c-.112-2.844-.459-4.877-3.919-4.877-3.17,0-6.949-2.051-6.949-11.824h1.478c0,6.865,1.841,10.347,5.471,10.347,5.148,0,5.3,3.959,5.4,6.325Z" fill="#007d70"/>
      <path id="Контур_46" data-name="Контур 46" d="M96.279,137.123c-2.189,0-3.963-1.21-5.274-3.6-.373-.68-2.756-1.721-4.321-1.721a7.266,7.266,0,0,0-3.42.932l-.775-1.258a8.762,8.762,0,0,1,4.195-1.152c1.711,0,4.824,1.045,5.616,2.488,1.061,1.932,2.325,2.832,3.979,2.832Z" fill="#6ba539"/>
      <path id="Контур_47" data-name="Контур 47" d="M79.8,155.79A1.806,1.806,0,0,1,78,154.5c-.213-.647-.476-1.3-.73-1.926a11.214,11.214,0,0,1-1.166-4.58.739.739,0,0,1,.126-.38c.4-.587.279-1.054-.006-1.973-.041-.132-.083-.267-.123-.405a3.472,3.472,0,0,1-1.059-2.465,4.539,4.539,0,0,0-.076-.685h-.012a1.754,1.754,0,0,1-1.171-.538c-.239-.214-.281-.249-.454-.2a5.664,5.664,0,0,1-4.936.292,2.1,2.1,0,0,1-1.11-1.861,1.266,1.266,0,0,0-.536-1.086,2.131,2.131,0,0,1-.824-1.865,5.569,5.569,0,0,1,3.459-5.1c.585-1.067,1.239-2.106,2.187-2.3a.745.745,0,0,1,.465.057,3.718,3.718,0,0,0,1.97-.14,5.406,5.406,0,0,1,2.569-.169,1.136,1.136,0,0,1,.866.793,1.148,1.148,0,0,1-.05.726,11.825,11.825,0,0,1,1.409.641.947.947,0,0,1,.32-.421.727.727,0,0,1,.479-.128c3.528.284,3.957.481,5.109,2.34.228.368.512.826.9,1.38a.742.742,0,0,1,.133.49c-.049.552.349.938,1,1.523a4.1,4.1,0,0,1,1.231,1.519,4.883,4.883,0,0,0,.662-.245,1.627,1.627,0,0,1,1.465-.161.974.974,0,0,1,.489.733c.31,1.994-1.145,3.515-2.429,4.858a13.452,13.452,0,0,0-1.2,1.368,11.337,11.337,0,0,0,.174,1.4c.241,1.436.513,3.054-1.84,4.246,0,.053.01.108.016.161a1.6,1.6,0,0,1-.946,1.915,6.142,6.142,0,0,1-4.411,3.471C79.9,155.789,79.847,155.79,79.8,155.79Zm-2.22-7.543a11.044,11.044,0,0,0,1.064,3.771c.263.651.534,1.324.763,2.017.066.2.141.3.453.276a4.585,4.585,0,0,0,3.195-2.754.737.737,0,0,1,.624-.592,1.016,1.016,0,0,0,.191-.043,3.047,3.047,0,0,0-.026-.361,3.092,3.092,0,0,1,0-.938.739.739,0,0,1,.435-.54c1.753-.75,1.65-1.364,1.4-2.846a11.186,11.186,0,0,1-.2-1.859.739.739,0,0,1,.113-.4A12.1,12.1,0,0,1,87.1,142.2a6.568,6.568,0,0,0,2.037-3.012,2.427,2.427,0,0,1-2.118.161.739.739,0,0,1-.388-.626c-.011-.34-.426-.711-.866-1.1a3.49,3.49,0,0,1-1.5-2.465c-.343-.5-.6-.911-.809-1.25-.817-1.317-.862-1.391-3.479-1.605a1.212,1.212,0,0,1-.932.768.827.827,0,0,1-.676-.264,8.208,8.208,0,0,0-1.56-.751c-.3-.12-.592-.238-.86-.363a.74.74,0,0,1-.263-1.133,8.232,8.232,0,0,0-1.354.23,5.282,5.282,0,0,1-2.6.156,5.4,5.4,0,0,0-1.082,1.561l-.084.153a.745.745,0,0,1-.359.324,4.116,4.116,0,0,0-2.8,3.957c-.022.3.052.385.369.686a2.717,2.717,0,0,1,1,2.139.629.629,0,0,0,.362.594,4.31,4.31,0,0,0,3.535-.323.665.665,0,0,1,.127-.059,1.819,1.819,0,0,1,1.981.467,1.526,1.526,0,0,0,.205.167c0-.006.051-.018.136-.065a.738.738,0,0,1,1.043.373,5.094,5.094,0,0,1,.368,1.767,2.13,2.13,0,0,0,.788,1.678.749.749,0,0,1,.172.309c.05.183.105.359.158.531A3.489,3.489,0,0,1,77.577,148.247Zm1.906-16.4h0Z" fill="#6ba539"/>
      <g id="Сгруппировать_188" data-name="Сгруппировать 188">
        <path id="Контур_48" data-name="Контур 48" d="M130.451,141.517h-2.678L120.206,124.1h3.068l5.824,13.651,5.824-13.651h3.1Z" fill="#6ba539"/>
        <path id="Контур_49" data-name="Контур 49" d="M143.008,124.747a1.73,1.73,0,0,1-3.458,0,1.729,1.729,0,0,1,3.458,0Zm-3.068,16.77v-12.9h2.7v12.9Z" fill="#6ba539"/>
        <path id="Контур_50" data-name="Контур 50" d="M145.816,141.517V122.8h2.7v18.721Z" fill="#6ba539"/>
        <path id="Контур_51" data-name="Контур 51" d="M151.587,141.517V122.8h2.7v18.721Z" fill="#6ba539"/>
        <path id="Контур_52" data-name="Контур 52" d="M170.256,141.517h-2.705v-1.482a6.3,6.3,0,0,1-4.679,1.846,6.826,6.826,0,0,1,0-13.625,6.3,6.3,0,0,1,4.679,1.847v-1.482h2.705Zm-2.705-6.448a4.3,4.3,0,0,0-4.237-4.42,4.425,4.425,0,0,0,0,8.84A4.278,4.278,0,0,0,167.551,135.069Z" fill="#6ba539"/>
        <path id="Контур_53" data-name="Контур 53" d="M185.778,140.373c0,3.848-2.652,6.085-6.682,6.085-3.095,0-5.252-1.17-6.293-3.095l2.211-1.638a4.289,4.289,0,0,0,4.082,2.288,3.775,3.775,0,0,0,4.056-4.03v-.832a5.875,5.875,0,0,1-4.446,1.612,6.24,6.24,0,1,1,0-12.48,5.875,5.875,0,0,1,4.446,1.612v-1.274h2.626Zm-2.626-5.876a4.072,4.072,0,1,0-4,3.926A3.889,3.889,0,0,0,183.152,134.5Z" fill="#6ba539"/>
        <path id="Контур_54" data-name="Контур 54" d="M200.988,135.719H190.536a4,4,0,0,0,3.9,3.822,3.856,3.856,0,0,0,3.8-2.236l2.418.52a6.267,6.267,0,0,1-6.214,4.056,6.815,6.815,0,0,1,.1-13.625,6.463,6.463,0,0,1,6.449,6.527Zm-10.374-1.925h7.592a3.6,3.6,0,0,0-3.667-3.145A3.934,3.934,0,0,0,190.614,133.794Z" fill="#6ba539"/>
        <g id="Сгруппировать_187" data-name="Сгруппировать 187">
          <path id="Контур_55" data-name="Контур 55" d="M134.871,164.517H121.9V147.1h12.949v2.523H124.678v4.914h9.387v2.5h-9.387v4.966h10.193Z" fill="#007d70"/>
          <path id="Контур_56" data-name="Контур 56" d="M150,156.716v7.8h-2.729v-7.254c0-2.106-1.223-3.511-3.068-3.511-2.315,0-3.849,1.561-3.849,4.811v5.954h-2.7v-12.9h2.7v1.586a5.568,5.568,0,0,1,4.473-1.951C147.922,151.256,150,153.493,150,156.716Z" fill="#007d70"/>
          <path id="Контур_57" data-name="Контур 57" d="M161.546,163.893a5.774,5.774,0,0,1-3.2.988c-2.782,0-4.654-1.56-4.654-4.758v-6.266h-2.782v-2.236h2.782v-4h2.7v4h4.42v2.236H156.4v6.084c0,1.612.858,2.392,2.132,2.392a4.24,4.24,0,0,0,2.184-.7Z" fill="#007d70"/>
          <path id="Контур_58" data-name="Контур 58" d="M175.289,158.719H164.837a4,4,0,0,0,3.9,3.822,3.857,3.857,0,0,0,3.8-2.236l2.418.52a6.267,6.267,0,0,1-6.214,4.056,6.815,6.815,0,0,1,.1-13.625,6.462,6.462,0,0,1,6.448,6.527Zm-10.374-1.925h7.592a3.6,3.6,0,0,0-3.666-3.145A3.934,3.934,0,0,0,164.915,156.794Z" fill="#007d70"/>
          <path id="Контур_59" data-name="Контур 59" d="M186,151.569l-.181,2.6a7.342,7.342,0,0,0-.754-.025c-3.276,0-4.889,2.288-4.889,5.824v4.55h-2.7v-12.9h2.7v2.755a5.606,5.606,0,0,1,4.914-2.912A2.771,2.771,0,0,1,186,151.569Z" fill="#007d70"/>
          <path id="Контур_60" data-name="Контур 60" d="M201.394,158.069a6.511,6.511,0,0,1-6.4,6.812,6.3,6.3,0,0,1-4.681-1.846v5.9h-2.7V151.621h2.7V153.1A6.3,6.3,0,0,1,195,151.256,6.528,6.528,0,0,1,201.394,158.069Zm-2.626,0a4.141,4.141,0,0,0-4.213-4.42,4.424,4.424,0,0,0,0,8.84A4.126,4.126,0,0,0,198.768,158.069Z" fill="#007d70"/>
          <path id="Контур_61" data-name="Контур 61" d="M211.584,151.569l-.181,2.6a7.342,7.342,0,0,0-.754-.025c-3.276,0-4.889,2.288-4.889,5.824v4.55h-2.7v-12.9h2.7v2.755a5.606,5.606,0,0,1,4.914-2.912A2.771,2.771,0,0,1,211.584,151.569Z" fill="#007d70"/>
          <path id="Контур_62" data-name="Контур 62" d="M216.761,147.747a1.73,1.73,0,0,1-3.458,0,1.729,1.729,0,0,1,3.458,0Zm-3.068,16.77v-12.9h2.7v12.9Z" fill="#007d70"/>
          <path id="Контур_63" data-name="Контур 63" d="M221.155,160.487c.181,1.534,1.534,2.184,3.224,2.184,1.56,0,2.548-.7,2.548-1.716,0-.78-.546-1.274-1.742-1.534l-2.808-.572c-2.236-.494-3.51-1.69-3.51-3.511,0-2.391,2-4.082,5.1-4.082,2.964,0,4.966,1.561,5.434,3.719l-2.574.546a2.672,2.672,0,0,0-2.938-2.106c-1.586,0-2.288.78-2.288,1.69,0,.728.416,1.2,1.56,1.456l3.068.676c2.08.442,3.355,1.664,3.355,3.484,0,2.7-2.21,4.16-5.435,4.16-2.886,0-5.356-1.222-5.694-3.822Z" fill="#007d70"/>
          <path id="Контур_64" data-name="Контур 64" d="M243.983,158.719H233.531a4,4,0,0,0,3.9,3.822,3.856,3.856,0,0,0,3.8-2.236l2.418.52a6.266,6.266,0,0,1-6.214,4.056,6.815,6.815,0,0,1,.1-13.625,6.462,6.462,0,0,1,6.448,6.527Zm-10.374-1.925H241.2a3.6,3.6,0,0,0-3.666-3.145A3.933,3.933,0,0,0,233.609,156.794Z" fill="#007d70"/>
        </g>
      </g>
      <path id="Контур_65" data-name="Контур 65" d="M109.279,133.962a30.028,30.028,0,0,0-56.5,0h1.592a28.527,28.527,0,0,1,53.32,0Z" fill="#007d70"/>
    </g>
  </g>
</svg>
